<?xml version="1.0" encoding="UTF-8"?>
<svg width="20px" height="20px" viewBox="0 0 22 22" version="1.1" xmlns="http://www.w3.org/2000/svg" xmlns:xlink="http://www.w3.org/1999/xlink">
    <!-- Generator: Sketch 50.2 (55047) - http://www.bohemiancoding.com/sketch -->
    <title>Favori-pasif</title>
    <desc>Created with Sketch.</desc>
    <defs></defs>
    <g id="Page-1" stroke="none" stroke-width="1" fill="none" fill-rule="evenodd">
        <path d="M11,21 C5.4771525,21 1,16.5228475 1,11 C1,5.4771525 5.4771525,1 11,1 C16.5228475,1 21,5.4771525 21,11 C21,16.5228475 16.5228475,21 11,21 Z M13.8090913,16 C13.9042049,16 13.9989776,15.9688095 14.0789777,15.9070238 C14.2312504,15.7894048 14.297955,15.5852381 14.2465913,15.3944048 L13.4444321,12.4160714 L15.8388642,10.2957143 C15.9800006,10.1707143 16.034887,9.96869048 15.9776143,9.78452381 C15.9203415,9.60047619 15.762387,9.47095238 15.5780687,9.45714286 L12.7060229,9.24059524 L11.4134091,6.27821429 C11.3394319,6.10869048 11.1778409,6 11,6 C10.8221591,6 10.6605681,6.10869048 10.5865909,6.27821429 L9.29397706,9.24059524 L6.42193125,9.45714286 C6.23761305,9.47095238 6.07965848,9.60047619 6.02238575,9.78452381 C5.96511301,9.96869048 6.01999938,10.1707143 6.16113576,10.2957143 L8.55556788,12.4160714 L7.75340869,15.3944048 C7.70204505,15.5852381 7.7687496,15.7894048 7.92102235,15.9070238 C8.07329509,16.0245238 8.27909057,16.0311905 8.43795423,15.9234524 L11,14.1844048 L13.5620458,15.9234524 C13.6373867,15.9745238 13.7232958,16 13.8090913,16 Z" id="Favori-pasif" stroke="#F8961D" fill="#FFFFFF"></path>
    </g>
</svg>