<svg width="16px" height="16px" viewBox="0 0 16 16" version="1.1" xmlns="http://www.w3.org/2000/svg" xmlns:xlink="http://www.w3.org/1999/xlink">
    <!-- Generator: Sketch 50.2 (55047) - http://www.bohemiancoding.com/sketch -->
    <title>Fill 354</title>
    <desc>Created with Sketch.</desc>
    <defs></defs>
    <g id="Page-1" stroke="none" stroke-width="1" fill="none" fill-rule="evenodd">
        <g id="Anasayfa-Ilan-Arama-Sonuclar" transform="translate(-705.000000, -1772.000000)" fill="#BBB2A6">
            <g id="Kart-11" transform="translate(690.000000, 1518.000000)">
                <path d="M26,261 L24,261 L24,259 C24,258.448 23.552,258 23,258 C22.448,258 22,258.448 22,259 L22,262 C22,262.552 22.448,263 23,263 L26,263 C26.553,263 27,262.552 27,262 C27,261.448 26.553,261 26,261 M23,268 C19.687,268 17,265.313 17,262 C17,258.686 19.687,256 23,256 C26.313,256 29,258.686 29,262 C29,265.313 26.313,268 23,268 M23,254 C18.589,254 15,257.589 15,262 C15,266.411 18.589,270 23,270 C27.411,270 31,266.411 31,262 C31,257.589 27.411,254 23,254" id="Fill-354"></path>
            </g>
        </g>
    </g>
</svg>